<svg width="402" height="120" viewBox="0 0 402 120" fill="none" xmlns="http://www.w3.org/2000/svg">
<g clip-path="url(#clip0_1850_5793)">
<path d="M0 0H402V120H0V0Z" fill="url(#paint0_radial_1850_5793)"/>
<path d="M239.607 40.2016L241.327 38.4119L235.655 33.1074L233.934 34.8972L239.607 40.2016Z" fill="#FF9A00"/>
<path d="M378.186 68.4209L375.359 66.7083L374.261 69.8784L377.089 71.5911L378.186 68.4209Z" fill="#FF9A00"/>
<path d="M248.347 80.2076L247.032 77.4204L238.752 81.3751L240.067 84.1623L248.347 80.2076Z" fill="#F6F7D7"/>
<path d="M358.685 26.5252L359.657 24.024L352.051 20.4557L351.079 22.9568L358.685 26.5252Z" fill="#F6F7D7"/>
<path d="M347.369 50.7232L346.284 47.7258L342.605 48.9654L343.691 51.9628L347.369 50.7232Z" fill="#3EC1D3"/>
<path d="M251.398 27.5693L253.701 26.9165L250.953 22.0441L248.65 22.6969L251.398 27.5693Z" fill="#3EC1D3"/>
<path d="M307.7 23.0693L309.385 22.6071L307.645 19.7469L305.96 20.2092L307.7 23.0693Z" fill="#FF9A00"/>
<path d="M312.769 21.8152L310.083 19.3129L307.529 21.7185L310.216 24.2208L312.769 21.8152Z" fill="#FF165D"/>
<path d="M201.974 54.9688L204.157 54.4586L202.685 49.2106L200.501 49.7207L201.974 54.9688Z" fill="#FF9A00"/>
<path d="M235.297 16.4597L233.262 14.4167L230.007 17.4649L232.042 19.5079L235.297 16.4597Z" fill="#FF165D"/>
<path d="M403.917 23.1354L401.083 20.2821L397.055 24.3338L399.888 27.1871L403.917 23.1354Z" fill="#F6F7D7"/>
<path d="M383.601 39.5804L382.108 37.3801L379.375 39.271L380.869 41.4713L383.601 39.5804Z" fill="#FF165D"/>
<path d="M290.638 84.142L293.303 83.4233L290.776 79.4616L288.111 80.1803L290.638 84.142Z" fill="#3EC1D3"/>
<path d="M313.89 9.08872L314.299 5.66724L310.194 4.25283L309.786 7.67431L313.89 9.08872Z" fill="#FF9A00"/>
<path d="M267.227 15.5403L265.118 15.2339L265.995 18.8272L268.104 19.1336L267.227 15.5403Z" fill="#FF165D"/>
<path d="M361.855 36.8893L361.982 33.6133L357.591 31.7374L357.465 35.0134L361.855 36.8893Z" fill="#FF165D"/>
<path d="M319.942 32.6594L322.988 31.0387L317.741 22.859L314.695 24.4798L319.942 32.6594Z" fill="#3EC1D3"/>
<path d="M373.202 41.5249L373.027 39.0796L370.015 38.3005L370.189 40.7458L373.202 41.5249Z" fill="#F6F7D7"/>
<path d="M213.803 9.82508L212.859 6.66211L207.494 6.47132L208.438 9.63429L213.803 9.82508Z" fill="#3EC1D3"/>
<path d="M219.91 19.7515L223.217 17.7676L219.701 10.2584L216.394 12.2423L219.91 19.7515Z" fill="#3EC1D3"/>
<path d="M244.559 58.3541L246.485 57.0288L239.871 49.4857L237.945 50.811L244.559 58.3541Z" fill="#F6F7D7"/>
<path d="M239.512 26.1069L242.341 23.9906L237.247 17.2393L234.417 19.3556L239.512 26.1069Z" fill="#F6F7D7"/>
<path d="M281.457 7.0857L278.244 5.95093L278.834 9.15893L282.048 10.2937L281.457 7.0857Z" fill="#FF165D"/>
<path d="M235.438 7.44821L237.137 6.03711L233.854 2.14374L232.155 3.55485L235.438 7.44821Z" fill="#3EC1D3"/>
<path d="M269.661 93.4698L270.385 90.1467L263.509 88.4205L262.785 91.7436L269.661 93.4698Z" fill="#F6F7D7"/>
<path d="M246.512 3.01236L246.118 -0.621826L236.99 0.00369434L237.385 3.63788L246.512 3.01236Z" fill="#F6F7D7"/>
<path d="M360.663 14.7522L362.65 15.2095L362.653 10.6818L360.666 10.2245L360.663 14.7522Z" fill="#FF165D"/>
<path d="M383.394 68.0869L385.31 66.6019L379.454 60.6606L377.537 62.1456L383.394 68.0869Z" fill="#FF165D"/>
<path d="M200.151 42.2559L199.074 39.7144L195.24 39.3932L196.317 41.9347L200.151 42.2559Z" fill="#FF9A00"/>
<path d="M293.423 20.5109L295.274 18.4363L292.627 16.1947L290.776 18.2693L293.423 20.5109Z" fill="#FF165D"/>
<path d="M335.612 23.8804L338.171 23.1552L334.354 16.3879L331.796 17.1132L335.612 23.8804Z" fill="#F6F7D7"/>
<path d="M332.51 67.7516L328.778 67.4978L328.517 74.7562L332.249 75.01L332.51 67.7516Z" fill="#FF9A00"/>
<path d="M305.043 62.1813L307.749 61.5856L306.611 57.3818L303.905 57.9775L305.043 62.1813Z" fill="#3EC1D3"/>
<path d="M310.083 49.6856L309.142 46.0948L303.111 47.4977L304.052 51.0885L310.083 49.6856Z" fill="#F6F7D7"/>
<path d="M241.038 15.9204L240.432 13.4136L233.104 12.9266L233.71 15.4334L241.038 15.9204Z" fill="#FF165D"/>
<path d="M343.579 77.0715L346.51 75.2988L340.307 66.9348L337.377 68.7074L343.579 77.0715Z" fill="#FF165D"/>
<path d="M276.581 50.0353L273.077 46.6029L268.655 49.4242L272.158 52.8566L276.581 50.0353Z" fill="#F6F7D7"/>
<path d="M174.372 26.5411L171.923 24.7771L170.077 27.7122L172.526 29.4762L174.372 26.5411Z" fill="#FF9A00"/>
<path d="M270.489 34.2299L266.674 32.9003L266.044 40.8938L269.859 42.2234L270.489 34.2299Z" fill="#FF9A00"/>
<path d="M371.663 65.5685L373.23 63.4952L368.162 59.4353L366.595 61.5085L371.663 65.5685Z" fill="#3EC1D3"/>
<path d="M382.015 11.7551L384.658 13.9729L390.278 6.04526L387.635 3.82745L382.015 11.7551Z" fill="#3EC1D3"/>
<path d="M36.874 58.348H34.3V44.136H36.874V58.348ZM37.292 63.21H23.674V57.072H26.27V61.186H37.292V63.21ZM32.584 53.398L31.132 55.444C29.636 54.872 27.59 53.046 26.732 51.242C26.138 53.244 24.004 55.268 22.2 55.906L20.638 53.86C23.498 52.826 25.368 50.274 25.368 47.326V45.258H28.052V47.194C28.052 50.208 30.318 52.65 32.584 53.398ZM57.7792 51.792H55.0292V56.544H52.4332V44.136H55.0292V49.724H57.7792V51.792ZM42.1152 57.49H55.0292V63.76H52.4552V59.536H42.1152V57.49ZM50.9152 49.328H39.5412V47.326H50.9152V49.328ZM42.3792 46.468V44.466H48.1872V46.468H42.3792ZM49.9252 53.222C49.9252 55.246 47.9452 56.632 45.2832 56.632C42.5992 56.632 40.5752 55.246 40.5752 53.222C40.5752 51.198 42.5772 49.834 45.2832 49.834C47.9452 49.834 49.9252 51.198 49.9252 53.222ZM43.1492 53.222C43.1492 54.08 44.1172 54.674 45.2832 54.674C46.4272 54.674 47.3952 54.08 47.3952 53.222C47.3952 52.364 46.4272 51.792 45.2832 51.792C44.0952 51.792 43.1492 52.364 43.1492 53.222ZM74.9443 63.738H72.3703V44.136H74.9443V63.738ZM68.9163 46.182C68.7623 52.1 66.1443 56.94 60.1603 60.196L58.5763 58.26C62.8663 56.302 65.7923 52.21 66.1443 48.316H59.7643V46.182H68.9163ZM99.7588 63.738H97.1848V44.136H99.7588V63.738ZM95.7108 57.358L94.2148 59.294C92.6088 58.304 90.5628 55.928 89.9028 53.882C89.2648 56.126 87.2408 58.612 85.2168 59.712L83.6548 57.82C86.8228 55.774 88.5168 52.672 88.5168 48.778V45.786H91.1788V48.646C91.1788 52.518 92.7408 55.444 95.7108 57.358ZM119.41 50.978L118.31 52.98C115.56 52.716 112.568 51.198 111.446 49.306C110.478 51.286 107.706 52.738 104.582 53.002L103.548 51C106.782 50.824 109.576 49.394 110.016 47.172H104.406V45.126H118.53V47.172H112.898C113.448 49.394 116.682 50.868 119.41 50.978ZM118.266 63.21H104.67V57.468H107.244V61.186H118.266V63.21ZM120.29 56.214H102.58V54.146H120.29V56.214ZM144.07 63.738H141.628V44.136H144.07V63.738ZM140.154 62.836H137.756V52.98H135.116V50.89H137.756V44.51H140.154V62.836ZM137.294 57.138L135.842 58.964C134.544 58.172 132.784 56.214 132.278 54.278C131.728 56.324 130.254 58.348 128.428 59.448L126.91 57.688C129.396 56.082 131.024 53.134 131.024 48.954V46.028H133.488V48.932C133.488 52.738 134.918 55.708 137.294 57.138ZM163.238 63.584H149.752V58.326H160.07V56.962H149.642V54.938H162.622V60.174H152.326V61.516H163.238V63.584ZM162.622 53.948H160.07V44.136H162.622V53.948ZM147.002 49.35C147.002 46.732 149.202 44.796 152.216 44.796C155.208 44.796 157.386 46.688 157.386 49.35C157.386 51.968 155.208 53.728 152.216 53.728C149.312 53.728 147.002 52.034 147.002 49.35ZM149.554 49.328C149.554 50.648 150.698 51.594 152.216 51.594C153.822 51.594 154.834 50.538 154.834 49.328C154.834 47.986 153.866 46.908 152.216 46.908C150.764 46.908 149.554 48.008 149.554 49.328Z" fill="#212121"/>
<path d="M37.3672 81.1348V90.8027H35.9756V81.1348H37.3672ZM37.7627 92.8389V93.9668H28.7832V89.9092H30.1895V92.8389H37.7627ZM31.3613 84.1816C31.3613 85.8223 32.6211 87.3457 34.6572 87.9463L33.9834 89.0449C32.4453 88.5688 31.2881 87.5801 30.7021 86.3057C30.1089 87.6899 28.9517 88.7666 27.3916 89.2646L26.7031 88.1807C28.7393 87.5361 29.9697 85.9248 29.9697 84.1816V83.918H27.0547V82.8047H29.9697V81.1787H31.376V82.8047H34.2617V83.918H31.3613V84.1816ZM49.8916 81.9404V83.0977C49.8916 84.3428 49.8916 85.6904 49.5254 87.5654H51.415V88.708H46.0977V94.2598H44.6914V88.708H39.4473V87.5654H48.1191C48.5146 85.6978 48.5146 84.3208 48.5146 83.0977V83.083H40.9121V81.9404H49.8916ZM56.3516 81.9551C58.373 81.9551 59.8818 83.2295 59.8818 85.0752C59.8818 86.7012 58.71 87.8804 57.0547 88.1367V90.2168C58.2192 90.1655 59.3838 90.0776 60.4678 89.9385L60.5703 90.9785C57.8018 91.4619 54.7402 91.4766 52.4697 91.4619L52.25 90.3193C53.2681 90.312 54.4399 90.3047 55.6631 90.2754V88.1367C53.9639 87.895 52.8066 86.7085 52.8213 85.0752C52.8066 83.2295 54.2861 81.9551 56.3516 81.9551ZM56.3516 83.127C55.0918 83.1416 54.1689 83.9033 54.1689 85.0752C54.1689 86.2471 55.0918 87.0234 56.3516 87.0088C57.5967 87.0234 58.5049 86.2471 58.5195 85.0752C58.5049 83.9033 57.5967 83.1416 56.3516 83.127ZM62.6504 81.1201V86.4521H64.6719V87.624H62.6504V94.2451H61.2588V81.1201H62.6504ZM73.0801 84.6797C73.0801 86.8623 73.9736 89.0596 75.7607 90.0117L74.9404 91.1104C73.7026 90.4146 72.8604 89.1694 72.4062 87.6826C71.9155 89.3086 71.0146 90.7002 69.7402 91.4473L68.8613 90.4365C70.7363 89.3379 71.7324 87.0088 71.7324 84.7676V82.3213H73.0801V84.6797ZM80.3311 81.1201V94.2451H78.998V87.4775H77.416V93.6006H76.083V81.3691H77.416V86.3496H78.998V81.1201H80.3311ZM94.0127 91.5059V92.6777H82.001V91.5059H87.2891V89.2061H83.4658V85.0312H91.1709V83.1855H83.4365V82.043H92.5479V86.1445H84.8428V88.0635H92.8555V89.2061H88.666V91.5059H94.0127ZM106.962 87.6973V88.8252H101.762V91.374H100.355V88.8252H94.9502V87.6973H106.962ZM105.629 92.8242V93.9668H96.459V90.1143H97.8506V92.8242H105.629ZM100.941 81.4277C103.769 81.4277 105.6 82.4531 105.6 84.0938C105.6 85.7344 103.769 86.7451 100.941 86.7451C98.1289 86.7451 96.2686 85.7344 96.2686 84.0938C96.2686 82.4531 98.1289 81.4277 100.941 81.4277ZM100.941 82.541C99.0225 82.541 97.748 83.127 97.7627 84.0938C97.748 85.0459 99.0225 85.6172 100.941 85.6172C102.875 85.6172 104.135 85.0459 104.135 84.0938C104.135 83.127 102.875 82.541 100.941 82.541ZM119.428 82.4531V83.5664H111.605V82.4531H114.828V81.0615H116.22V82.4531H119.428ZM115.517 84.1523C117.406 84.167 118.695 85.1045 118.695 86.54C118.695 87.9756 117.406 88.9277 115.517 88.9277C113.612 88.9277 112.323 87.9756 112.323 86.54C112.323 85.1045 113.612 84.167 115.517 84.1523ZM115.517 85.2217C114.403 85.2217 113.656 85.7344 113.671 86.54C113.656 87.3604 114.403 87.8438 115.517 87.8438C116.63 87.8438 117.377 87.3604 117.392 86.54C117.377 85.7344 116.63 85.2217 115.517 85.2217ZM121.903 81.1201V84.6797H123.808V85.8369H121.903V89.3232H120.512V81.1201H121.903ZM121.903 89.9971V94.2451H120.512V91.125H113.231V89.9971H121.903ZM135.468 81.1201V94.2451H134.062V81.1201H135.468ZM131.557 82.5264C131.557 86.3643 129.916 89.7041 125.419 91.8574L124.687 90.7295C128.18 89.0669 129.879 86.7012 130.15 83.6396H125.316V82.5264H131.557ZM149.516 87.1406V88.21H137.504V87.1406H149.516ZM148.036 89.1328V92.0186H140.331V93.1025H148.446V94.084H138.939V91.0957H146.659V90.1289H138.925V89.1328H148.036ZM148.007 81.457V84.2988H140.419V85.2949H148.227V86.2764H139.042V83.376H146.615V82.4385H139.013V81.457H148.007ZM160.795 81.999V87.6533H154.657V81.999H160.795ZM156.02 83.1123V86.54H159.433V83.1123H156.02ZM164.457 81.1201V84.167H166.361V85.3242H164.457V88.5615H163.065V81.1201H164.457ZM164.662 89.2939V90.4072H161.073C161.264 91.6523 162.97 92.8022 165.204 93.1318L164.691 94.2012C162.699 93.8936 161.059 92.978 160.297 91.7256C159.55 92.9854 157.917 93.8936 155.932 94.1865L155.419 93.1172C157.667 92.8022 159.337 91.689 159.564 90.4072H155.946V89.2939H164.662ZM177.978 81.1201V94.2744H176.586V81.1201H177.978ZM170.961 82.1016C172.909 82.1016 174.345 83.8887 174.345 86.7012C174.345 89.5283 172.909 91.3154 170.961 91.3154C168.983 91.3154 167.562 89.5283 167.562 86.7012C167.562 83.8887 168.983 82.1016 170.961 82.1016ZM170.961 83.3467C169.745 83.3467 168.91 84.6357 168.91 86.7012C168.91 88.7812 169.745 90.0703 170.961 90.0703C172.162 90.0703 172.997 88.7812 172.997 86.7012C172.997 84.6357 172.162 83.3467 170.961 83.3467ZM186.562 83.2881V84.416H180.043V83.2881H182.621V81.501H183.998V83.2881H186.562ZM183.31 85.207C184.979 85.207 186.151 86.4521 186.166 88.2246C186.151 90.0117 184.979 91.2715 183.31 91.2715C181.669 91.2715 180.453 90.0117 180.468 88.2246C180.453 86.4521 181.669 85.207 183.31 85.207ZM183.31 86.3643C182.357 86.3643 181.698 87.1406 181.698 88.2246C181.698 89.3379 182.357 90.085 183.31 90.085C184.247 90.085 184.936 89.3379 184.936 88.2246C184.936 87.1406 184.247 86.3643 183.31 86.3643ZM191.308 81.1201V94.2451H189.989V87.7266H188.48V93.6299H187.162V81.4131H188.48V86.584H189.989V81.1201H191.308ZM205.048 91.4473V92.6045H193.036V91.4473H195.907V88.0195C194.831 87.4263 194.179 86.4814 194.179 85.3096C194.179 83.2441 196.2 81.8818 199.013 81.8818C201.84 81.8818 203.861 83.2441 203.861 85.3096C203.861 86.4668 203.231 87.397 202.177 87.9902V91.4473H205.048ZM199.013 82.9951C196.947 82.9951 195.526 83.8887 195.526 85.3096C195.526 86.7158 196.947 87.6387 199.013 87.6387C201.063 87.6387 202.514 86.7158 202.514 85.3096C202.514 83.8887 201.063 82.9951 199.013 82.9951ZM197.284 91.4473H200.771V88.5176C200.236 88.6567 199.643 88.7227 199.013 88.7227C198.397 88.7227 197.812 88.6567 197.284 88.5322V91.4473ZM208.417 82.3945L208.285 89.9385H206.835L206.703 82.3945H208.417ZM207.567 93.1025C206.996 93.1025 206.513 92.6338 206.527 92.0625C206.513 91.4912 206.996 91.0225 207.567 91.0225C208.124 91.0225 208.607 91.4912 208.607 92.0625C208.607 92.6338 208.124 93.1025 207.567 93.1025Z" fill="#595959"/>
<path d="M29.85 31.65H35.1V33H28.35V28.29L30.09 27.285H33.6V23.85H29.85V25.2H28.35V23.505L30.09 22.5H33.36L35.1 23.505V27.63L33.36 28.635H29.85V31.65ZM45.0732 32.07L43.3332 33.075H39.5382L37.7982 32.07V23.43L39.5382 22.425H43.3332L45.0732 23.43V32.07ZM39.2982 23.775V31.725H43.5732V23.775H39.2982ZM49.2738 31.65H54.5238V33H47.7738V28.29L49.5138 27.285H53.0238V23.85H49.2738V25.2H47.7738V23.505L49.5138 22.5H52.7838L54.5238 23.505V27.63L52.7838 28.635H49.2738V31.65ZM59.0221 23.85V26.535H62.4571L64.1971 27.54V32.07L62.4571 33.075H58.9621L57.2221 32.07V30.375H58.7221V31.725H62.6971V27.885H57.5221V22.5H64.0471V23.85H59.0221Z" fill="#FF4F15"/>
<rect x="255" y="73" width="127" height="28" rx="14" fill="#0E0E0E"/>
<path d="M276.093 81.7422V93.0283H275.115V87.1885H273.49V92.4443H272.551V81.9961H273.49V86.3379H275.115V81.7422H276.093ZM268.019 83.126V89.2197C269.142 89.207 270.335 89.1309 271.713 88.8516L271.84 89.7402C270.266 90.0195 268.971 90.1084 267.727 90.1084H267.028V83.126H268.019ZM290.629 81.7422V93.0283H289.664V81.7422H290.629ZM288.509 81.9961V92.4697H287.569V88.9531H285.932C285.576 89.8926 284.757 90.4893 283.723 90.4893C282.352 90.4893 281.336 89.4229 281.349 87.8867C281.336 86.3379 282.352 85.2842 283.723 85.2842C285.106 85.2842 286.109 86.3379 286.109 87.8867L286.097 88.1533H287.569V86.4014H285.982V85.5762H287.569V81.9961H288.509ZM286.554 83.6973V84.5098H280.93V83.6973H283.24V82.0469H284.243V83.6973H286.554ZM283.723 86.1348C282.847 86.1475 282.225 86.8584 282.225 87.8867C282.225 88.9023 282.847 89.626 283.723 89.626C284.599 89.626 285.233 88.9023 285.233 87.8867C285.233 86.8584 284.599 86.1475 283.723 86.1348ZM297.078 82.5674V83.4053H293.65V84.8145H296.951V85.6016H293.65V87.1631C295.294 87.1567 296.323 87.0996 297.535 86.8584L297.637 87.6836C296.316 87.9375 295.25 88.001 293.409 88.001H292.698V82.5674H297.078ZM301.775 81.7549V88.5977H300.823V85.5127H299.236V88.5215H298.31V81.9707H299.236V84.7002H300.823V81.7549H301.775ZM301.775 89.1816V93.0283H300.798V89.9941H294.171V89.1816H301.775ZM315.499 81.7549V85.1699H317.188V86.0078H315.499V89.3213H314.496V81.7549H315.499ZM306.638 88.166C307.539 88.166 308.593 88.166 309.697 88.1279V87.3027C308.383 87.1885 307.539 86.5728 307.539 85.6396C307.539 84.6113 308.593 83.9766 310.18 83.9766C311.779 83.9766 312.82 84.6113 312.833 85.6396C312.82 86.5664 311.995 87.1821 310.688 87.3027V88.0898C311.741 88.0391 312.808 87.9565 313.798 87.8105L313.887 88.5342C311.437 88.9658 308.732 88.9785 306.752 88.9785L306.638 88.166ZM315.499 89.8799V93.0283H314.496V90.6797H308.021V89.8799H315.499ZM313.455 82.7832V83.5449H306.917V82.7832H309.697V81.6533H310.688V82.7832H313.455ZM310.18 84.6875C309.139 84.6748 308.491 85.043 308.491 85.6396C308.491 86.2236 309.139 86.6299 310.18 86.6172C311.221 86.6299 311.881 86.2236 311.881 85.6396C311.881 85.043 311.221 84.6748 310.18 84.6875ZM327.242 81.7549V90.0068H326.252V81.7549H327.242ZM327.598 91.9492V92.7871H319.955V89.1689H320.945V91.9492H327.598ZM321.148 82.542C322.837 82.542 324.106 83.6846 324.106 85.3096C324.106 86.96 322.837 88.0898 321.148 88.0898C319.46 88.0898 318.19 86.96 318.19 85.3096C318.19 83.6846 319.46 82.542 321.148 82.542ZM321.148 83.418C320.006 83.418 319.155 84.2051 319.168 85.3096C319.155 86.4395 320.006 87.2139 321.148 87.2139C322.266 87.2139 323.129 86.4395 323.129 85.3096C323.129 84.2051 322.266 83.418 321.148 83.418ZM337.894 81.7422V86.4014H339.785V87.2266H337.894V93.0283H336.903V81.7422H337.894ZM335.812 83.5576V84.3828H329.096V83.5576H332.003V81.8818H332.993V83.5576H335.812ZM332.511 85.3223C334.11 85.3223 335.266 86.3887 335.278 87.9121C335.266 89.4355 334.11 90.502 332.511 90.502C330.898 90.502 329.73 89.4355 329.743 87.9121C329.73 86.3887 330.898 85.3223 332.511 85.3223ZM332.511 86.1602C331.457 86.1602 330.683 86.8965 330.695 87.9121C330.683 88.9404 331.457 89.6641 332.511 89.6514C333.552 89.6641 334.313 88.9404 334.326 87.9121C334.313 86.8965 333.552 86.1602 332.511 86.1602ZM349.726 81.7422V93.0283H348.723V81.7422H349.726ZM346.387 82.9736C346.374 86.2236 344.863 89.0928 341.08 90.9082L340.534 90.0957C343.587 88.6484 345.143 86.4839 345.371 83.7861H341.055V82.9736H346.387Z" fill="#FF4F15"/>
<path d="M369.386 87.3333H361.667C361.572 87.3333 361.492 87.3015 361.429 87.2378C361.365 87.1742 361.333 87.0949 361.333 87C361.333 86.9051 361.365 86.8258 361.429 86.7622C361.492 86.6985 361.572 86.6667 361.667 86.6667H369.386L365.76 83.041C365.695 82.9761 365.661 82.8996 365.658 82.8115C365.655 82.7235 365.691 82.6427 365.764 82.5692C365.838 82.4983 365.916 82.4622 366 82.4608C366.084 82.4596 366.162 82.4957 366.236 82.5692L370.29 86.623C370.348 86.6812 370.389 86.7407 370.412 86.8013C370.436 86.862 370.447 86.9282 370.447 87C370.447 87.0718 370.436 87.138 370.412 87.1987C370.389 87.2593 370.348 87.3188 370.29 87.377L366.236 91.4308C366.173 91.4932 366.098 91.5265 366.008 91.5308C365.919 91.5351 365.838 91.5017 365.764 91.4308C365.691 91.3573 365.654 91.278 365.654 91.193C365.654 91.1079 365.691 91.0286 365.764 90.9552L369.386 87.3333Z" fill="#FF4F15"/>
</g>
<defs>
<radialGradient id="paint0_radial_1850_5793" cx="0" cy="0" r="1" gradientUnits="userSpaceOnUse" gradientTransform="translate(287.585 -53) rotate(153.201) scale(419.194 137.692)">
<stop stop-color="#F5F5F5"/>
<stop offset="0.853772" stop-color="#FFA67D"/>
<stop offset="1" stop-color="#FF612B"/>
</radialGradient>
<clipPath id="clip0_1850_5793">
<rect width="402" height="120" fill="white"/>
</clipPath>
</defs>
</svg>
