<svg width="520" height="140" viewBox="0 0 520 140" fill="none" xmlns="http://www.w3.org/2000/svg">
<g clip-path="url(#clip0_1850_5989)">
<path d="M0 0H520V140H0V0Z" fill="url(#paint0_radial_1850_5989)"/>
<path d="M39.942 64.684H36.9V47.888H39.942V64.684ZM40.436 70.43H24.342V63.176H27.41V68.038H40.436V70.43ZM34.872 58.834L33.156 61.252C31.388 60.576 28.97 58.418 27.956 56.286C27.254 58.652 24.732 61.044 22.6 61.798L20.754 59.38C24.134 58.158 26.344 55.142 26.344 51.658V49.214H29.516V51.502C29.516 55.064 32.194 57.95 34.872 58.834ZM64.6481 56.936H61.3981V62.552H58.3301V47.888H61.3981V54.492H64.6481V56.936ZM46.1361 63.67H61.3981V71.08H58.3561V66.088H46.1361V63.67ZM56.5361 54.024H43.0941V51.658H56.5361V54.024ZM46.4481 50.644V48.278H53.3121V50.644H46.4481ZM55.3661 58.626C55.3661 61.018 53.0261 62.656 49.8801 62.656C46.7081 62.656 44.3161 61.018 44.3161 58.626C44.3161 56.234 46.6821 54.622 49.8801 54.622C53.0261 54.622 55.3661 56.234 55.3661 58.626ZM47.3581 58.626C47.3581 59.64 48.5021 60.342 49.8801 60.342C51.2321 60.342 52.3761 59.64 52.3761 58.626C52.3761 57.612 51.2321 56.936 49.8801 56.936C48.4761 56.936 47.3581 57.612 47.3581 58.626ZM84.9342 71.054H81.8922V47.888H84.9342V71.054ZM77.8102 50.306C77.6282 57.3 74.5342 63.02 67.4622 66.868L65.5902 64.58C70.6602 62.266 74.1182 57.43 74.5342 52.828H66.9942V50.306H77.8102ZM114.26 71.054H111.218V47.888H114.26V71.054ZM109.476 63.514L107.708 65.802C105.81 64.632 103.392 61.824 102.612 59.406C101.858 62.058 99.4664 64.996 97.0744 66.296L95.2284 64.06C98.9724 61.642 100.974 57.976 100.974 53.374V49.838H104.12V53.218C104.12 57.794 105.966 61.252 109.476 63.514ZM137.484 55.974L136.184 58.34C132.934 58.028 129.398 56.234 128.072 53.998C126.928 56.338 123.652 58.054 119.96 58.366L118.738 56C122.56 55.792 125.862 54.102 126.382 51.476H119.752V49.058H136.444V51.476H129.788C130.438 54.102 134.26 55.844 137.484 55.974ZM136.132 70.43H120.064V63.644H123.106V68.038H136.132V70.43ZM138.524 62.162H117.594V59.718H138.524V62.162ZM166.629 71.054H163.743V47.888H166.629V71.054ZM162.001 69.988H159.167V58.34H156.047V55.87H159.167V48.33H162.001V69.988ZM158.621 63.254L156.905 65.412C155.371 64.476 153.291 62.162 152.693 59.874C152.043 62.292 150.301 64.684 148.143 65.984L146.349 63.904C149.287 62.006 151.211 58.522 151.211 53.582V50.124H154.123V53.556C154.123 58.054 155.813 61.564 158.621 63.254ZM189.281 70.872H173.343V64.658H185.537V63.046H173.213V60.654H188.553V66.842H176.385V68.428H189.281V70.872ZM188.553 59.484H185.537V47.888H188.553V59.484ZM170.093 54.05C170.093 50.956 172.693 48.668 176.255 48.668C179.791 48.668 182.365 50.904 182.365 54.05C182.365 57.144 179.791 59.224 176.255 59.224C172.823 59.224 170.093 57.222 170.093 54.05ZM173.109 54.024C173.109 55.584 174.461 56.702 176.255 56.702C178.153 56.702 179.349 55.454 179.349 54.024C179.349 52.438 178.205 51.164 176.255 51.164C174.539 51.164 173.109 52.464 173.109 54.024Z" fill="#212121"/>
<path d="M32.8828 94.5527V105.51H31.3057V94.5527H32.8828ZM33.3311 107.817V109.096H23.1543V104.497H24.748V107.817H33.3311ZM26.0762 98.0059C26.0762 99.8652 27.5039 101.592 29.8115 102.272L29.0479 103.518C27.3047 102.978 25.9932 101.857 25.3291 100.413C24.6567 101.982 23.3452 103.202 21.5771 103.767L20.7969 102.538C23.1045 101.808 24.499 99.9814 24.499 98.0059V97.707H21.1953V96.4453H24.499V94.6025H26.0928V96.4453H29.3633V97.707H26.0762V98.0059ZM47.0771 95.4658V96.7773C47.0771 98.1885 47.0771 99.7158 46.6621 101.841H48.8037V103.136H42.7773V109.428H41.1836V103.136H35.2402V101.841H45.0684C45.5166 99.7241 45.5166 98.1636 45.5166 96.7773V96.7607H36.9004V95.4658H47.0771ZM54.3984 95.4824C56.6895 95.4824 58.3994 96.9268 58.3994 99.0186C58.3994 100.861 57.0713 102.198 55.1953 102.488V104.846C56.5151 104.788 57.835 104.688 59.0635 104.53L59.1797 105.709C56.042 106.257 52.5723 106.273 49.999 106.257L49.75 104.962C50.9038 104.954 52.2319 104.945 53.6182 104.912V102.488C51.6924 102.214 50.3809 100.87 50.3975 99.0186C50.3809 96.9268 52.0576 95.4824 54.3984 95.4824ZM54.3984 96.8105C52.9707 96.8271 51.9248 97.6904 51.9248 99.0186C51.9248 100.347 52.9707 101.227 54.3984 101.21C55.8096 101.227 56.8389 100.347 56.8555 99.0186C56.8389 97.6904 55.8096 96.8271 54.3984 96.8105ZM61.5371 94.5361V100.579H63.8281V101.907H61.5371V109.411H59.96V94.5361H61.5371ZM73.3574 98.5703C73.3574 101.044 74.3701 103.534 76.3955 104.613L75.4658 105.858C74.063 105.07 73.1084 103.659 72.5938 101.974C72.0376 103.816 71.0166 105.394 69.5723 106.24L68.5762 105.095C70.7012 103.85 71.8301 101.21 71.8301 98.6699V95.8975H73.3574V98.5703ZM81.5752 94.5361V109.411H80.0645V101.741H78.2715V108.681H76.7607V94.8184H78.2715V100.463H80.0645V94.5361H81.5752ZM97.0811 106.307V107.635H83.4678V106.307H89.4609V103.7H85.1279V98.9688H93.8604V96.877H85.0947V95.582H95.4209V100.23H86.6885V102.405H95.7695V103.7H91.0215V106.307H97.0811ZM111.757 101.99V103.269H105.863V106.157H104.27V103.269H98.1436V101.99H111.757ZM110.246 107.801V109.096H99.8535V104.729H101.431V107.801H110.246ZM104.934 94.8848C108.138 94.8848 110.213 96.0469 110.213 97.9062C110.213 99.7656 108.138 100.911 104.934 100.911C101.746 100.911 99.6377 99.7656 99.6377 97.9062C99.6377 96.0469 101.746 94.8848 104.934 94.8848ZM104.934 96.1465C102.759 96.1465 101.314 96.8105 101.331 97.9062C101.314 98.9854 102.759 99.6328 104.934 99.6328C107.125 99.6328 108.553 98.9854 108.553 97.9062C108.553 96.8105 107.125 96.1465 104.934 96.1465ZM125.885 96.0469V97.3086H117.02V96.0469H120.672V94.4697H122.249V96.0469H125.885ZM121.452 97.9727C123.594 97.9893 125.055 99.0518 125.055 100.679C125.055 102.306 123.594 103.385 121.452 103.385C119.294 103.385 117.833 102.306 117.833 100.679C117.833 99.0518 119.294 97.9893 121.452 97.9727ZM121.452 99.1846C120.19 99.1846 119.344 99.7656 119.36 100.679C119.344 101.608 120.19 102.156 121.452 102.156C122.714 102.156 123.561 101.608 123.577 100.679C123.561 99.7656 122.714 99.1846 121.452 99.1846ZM128.69 94.5361V98.5703H130.849V99.8818H128.69V103.833H127.113V94.5361H128.69ZM128.69 104.597V109.411H127.113V105.875H118.862V104.597H128.69ZM144.063 94.5361V109.411H142.47V94.5361H144.063ZM139.631 96.1299C139.631 100.479 137.771 104.265 132.675 106.705L131.845 105.427C135.804 103.542 137.73 100.861 138.037 97.3916H132.559V96.1299H139.631ZM159.984 101.359V102.571H146.371V101.359H159.984ZM158.308 103.617V106.888H149.575V108.116H158.772V109.229H147.998V105.842H156.747V104.746H147.981V103.617H158.308ZM158.274 94.918V98.1387H149.675V99.2676H158.523V100.38H148.114V97.0928H156.697V96.0303H148.081V94.918H158.274ZM172.768 95.5322V101.94H165.812V95.5322H172.768ZM167.355 96.7939V100.679H171.224V96.7939H167.355ZM176.918 94.5361V97.9893H179.076V99.3008H176.918V102.97H175.341V94.5361H176.918ZM177.15 103.8V105.062H173.083C173.299 106.473 175.233 107.776 177.765 108.149L177.184 109.361C174.926 109.013 173.066 107.975 172.203 106.556C171.356 107.983 169.505 109.013 167.256 109.345L166.675 108.133C169.223 107.776 171.116 106.514 171.373 105.062H167.272V103.8H177.15ZM192.241 94.5361V109.444H190.664V94.5361H192.241ZM184.289 95.6484C186.497 95.6484 188.124 97.6738 188.124 100.861C188.124 104.065 186.497 106.091 184.289 106.091C182.048 106.091 180.438 104.065 180.438 100.861C180.438 97.6738 182.048 95.6484 184.289 95.6484ZM184.289 97.0596C182.911 97.0596 181.965 98.5205 181.965 100.861C181.965 103.219 182.911 104.68 184.289 104.68C185.65 104.68 186.597 103.219 186.597 100.861C186.597 98.5205 185.65 97.0596 184.289 97.0596ZM201.97 96.9932V98.2715H194.582V96.9932H197.504V94.9678H199.064V96.9932H201.97ZM198.284 99.168C200.177 99.168 201.505 100.579 201.521 102.588C201.505 104.613 200.177 106.041 198.284 106.041C196.425 106.041 195.047 104.613 195.063 102.588C195.047 100.579 196.425 99.168 198.284 99.168ZM198.284 100.479C197.205 100.479 196.458 101.359 196.458 102.588C196.458 103.85 197.205 104.696 198.284 104.696C199.347 104.696 200.127 103.85 200.127 102.588C200.127 101.359 199.347 100.479 198.284 100.479ZM207.349 94.5361V109.411H205.854V102.023H204.145V108.714H202.65V94.8682H204.145V100.729H205.854V94.5361H207.349ZM222.921 106.24V107.552H209.308V106.24H212.562V102.355C211.341 101.683 210.603 100.612 210.603 99.2842C210.603 96.9434 212.894 95.3994 216.081 95.3994C219.285 95.3994 221.576 96.9434 221.576 99.2842C221.576 100.596 220.862 101.65 219.667 102.322V106.24H222.921ZM216.081 96.6611C213.74 96.6611 212.13 97.6738 212.13 99.2842C212.13 100.878 213.74 101.924 216.081 101.924C218.405 101.924 220.049 100.878 220.049 99.2842C220.049 97.6738 218.405 96.6611 216.081 96.6611ZM214.122 106.24H218.073V102.92C217.467 103.078 216.795 103.152 216.081 103.152C215.384 103.152 214.72 103.078 214.122 102.937V106.24ZM226.739 95.9805L226.59 104.53H224.946L224.797 95.9805H226.739ZM225.776 108.116C225.129 108.116 224.581 107.585 224.598 106.938C224.581 106.29 225.129 105.759 225.776 105.759C226.407 105.759 226.955 106.29 226.955 106.938C226.955 107.585 226.407 108.116 225.776 108.116Z" fill="#595959"/>
<path d="M23.23 34.47H29.18V36H21.53V30.662L23.502 29.523H27.48V25.63H23.23V27.16H21.53V25.239L23.502 24.1H27.208L29.18 25.239V29.914L27.208 31.053H23.23V34.47ZM40.483 34.946L38.511 36.085H34.21L32.238 34.946V25.154L34.21 24.015H38.511L40.483 25.154V34.946ZM33.938 25.545V34.555H38.783V25.545H33.938ZM45.2437 34.47H51.1937V36H43.5437V30.662L45.5157 29.523H49.4937V25.63H45.2437V27.16H43.5437V25.239L45.5157 24.1H49.2217L51.1937 25.239V29.914L49.2217 31.053H45.2437V34.47ZM56.2917 25.63V28.673H60.1847L62.1567 29.812V34.946L60.1847 36.085H56.2237L54.2517 34.946V33.025H55.9517V34.555H60.4567V30.203H54.5917V24.1H61.9867V25.63H56.2917Z" fill="#FF4F15"/>
<rect x="365" y="88" width="135" height="28" rx="14" fill="#0E0E0E"/>
<path d="M386.869 95.9531V108.107H385.816V101.818H384.066V107.479H383.055V96.2266H384.066V100.902H385.816V95.9531H386.869ZM378.174 97.4434V104.006C379.384 103.992 380.669 103.91 382.152 103.609L382.289 104.566C380.594 104.867 379.199 104.963 377.859 104.963H377.107V97.4434H378.174ZM402.523 95.9531V108.107H401.484V95.9531H402.523ZM400.24 96.2266V107.506H399.229V103.719H397.465C397.082 104.73 396.2 105.373 395.086 105.373C393.609 105.373 392.516 104.225 392.529 102.57C392.516 100.902 393.609 99.7676 395.086 99.7676C396.576 99.7676 397.656 100.902 397.656 102.57L397.643 102.857H399.229V100.971H397.52V100.082H399.229V96.2266H400.24ZM398.135 98.0586V98.9336H392.078V98.0586H394.566V96.2812H395.646V98.0586H398.135ZM395.086 100.684C394.143 100.697 393.473 101.463 393.473 102.57C393.473 103.664 394.143 104.443 395.086 104.443C396.029 104.443 396.713 103.664 396.713 102.57C396.713 101.463 396.029 100.697 395.086 100.684ZM409.469 96.8418V97.7441H405.777V99.2617H409.332V100.109H405.777V101.791C407.548 101.784 408.655 101.723 409.961 101.463L410.07 102.352C408.648 102.625 407.5 102.693 405.518 102.693H404.752V96.8418H409.469ZM414.527 95.9668V103.336H413.502V100.014H411.793V103.254H410.795V96.1992H411.793V99.1387H413.502V95.9668H414.527ZM414.527 103.965V108.107H413.475V104.84H406.338V103.965H414.527ZM429.307 95.9668V99.6445H431.125V100.547H429.307V104.115H428.227V95.9668H429.307ZM419.764 102.871C420.734 102.871 421.869 102.871 423.059 102.83V101.941C421.644 101.818 420.734 101.155 420.734 100.15C420.734 99.043 421.869 98.3594 423.578 98.3594C425.301 98.3594 426.422 99.043 426.436 100.15C426.422 101.148 425.533 101.812 424.125 101.941V102.789C425.26 102.734 426.408 102.646 427.475 102.488L427.57 103.268C424.932 103.732 422.02 103.746 419.887 103.746L419.764 102.871ZM429.307 104.717V108.107H428.227V105.578H421.254V104.717H429.307ZM427.105 97.0742V97.8945H420.064V97.0742H423.059V95.8574H424.125V97.0742H427.105ZM423.578 99.125C422.457 99.1113 421.76 99.5078 421.76 100.15C421.76 100.779 422.457 101.217 423.578 101.203C424.699 101.217 425.41 100.779 425.41 100.15C425.41 99.5078 424.699 99.1113 423.578 99.125ZM441.953 95.9668V104.854H440.887V95.9668H441.953ZM442.336 106.945V107.848H434.105V103.951H435.172V106.945H442.336ZM435.391 96.8145C437.209 96.8145 438.576 98.0449 438.576 99.7949C438.576 101.572 437.209 102.789 435.391 102.789C433.572 102.789 432.205 101.572 432.205 99.7949C432.205 98.0449 433.572 96.8145 435.391 96.8145ZM435.391 97.7578C434.16 97.7578 433.244 98.6055 433.258 99.7949C433.244 101.012 434.16 101.846 435.391 101.846C436.594 101.846 437.523 101.012 437.523 99.7949C437.523 98.6055 436.594 97.7578 435.391 97.7578ZM453.424 95.9531V100.971H455.461V101.859H453.424V108.107H452.357V95.9531H453.424ZM451.182 97.9082V98.7969H443.949V97.9082H447.08V96.1035H448.146V97.9082H451.182ZM447.627 99.8086C449.35 99.8086 450.594 100.957 450.607 102.598C450.594 104.238 449.35 105.387 447.627 105.387C445.891 105.387 444.633 104.238 444.646 102.598C444.633 100.957 445.891 99.8086 447.627 99.8086ZM447.627 100.711C446.492 100.711 445.658 101.504 445.672 102.598C445.658 103.705 446.492 104.484 447.627 104.471C448.748 104.484 449.568 103.705 449.582 102.598C449.568 101.504 448.748 100.711 447.627 100.711ZM466.166 95.9531V108.107H465.086V95.9531H466.166ZM462.57 97.2793C462.557 100.779 460.93 103.869 456.855 105.824L456.268 104.949C459.556 103.391 461.23 101.06 461.477 98.1543H456.828V97.2793H462.57Z" fill="#FF4F15"/>
<path d="M486.809 102.375H478.125C478.018 102.375 477.929 102.339 477.857 102.268C477.786 102.196 477.75 102.107 477.75 102C477.75 101.893 477.786 101.804 477.857 101.732C477.929 101.661 478.018 101.625 478.125 101.625H486.809L482.73 97.5461C482.657 97.4731 482.619 97.387 482.616 97.2879C482.612 97.1889 482.652 97.098 482.735 97.0153C482.817 96.9355 482.906 96.8949 483 96.8934C483.094 96.892 483.183 96.9327 483.265 97.0153L487.826 101.576C487.891 101.641 487.937 101.708 487.964 101.776C487.99 101.845 488.003 101.919 488.003 102C488.003 102.081 487.99 102.155 487.964 102.223C487.937 102.292 487.891 102.359 487.826 102.424L483.265 106.985C483.195 107.055 483.11 107.092 483.009 107.097C482.909 107.102 482.817 107.064 482.735 106.985C482.652 106.902 482.611 106.813 482.611 106.717C482.611 106.621 482.652 106.532 482.735 106.45L486.809 102.375Z" fill="#FF4F15"/>
<path d="M296.812 44.2016L298.713 42.4119L292.446 37.1074L290.545 38.8972L296.812 44.2016Z" fill="#FF9A00"/>
<path d="M430.897 3.85356L433.193 1.35449L425.83 -4.08347L423.534 -1.58441L430.897 3.85356Z" fill="#FF165D"/>
<path d="M449.905 72.4209L446.781 70.7083L445.569 73.8784L448.693 75.5911L449.905 72.4209Z" fill="#FF9A00"/>
<path d="M306.467 84.2076L305.015 81.4204L295.868 85.3751L297.321 88.1623L306.467 84.2076Z" fill="#F6F7D7"/>
<path d="M483.023 30.7431L484.155 27.9253L480.574 26.4918L479.442 29.3097L483.023 30.7431Z" fill="#FF165D"/>
<path d="M428.362 30.5252L429.436 28.024L421.033 24.4557L419.959 26.9568L428.362 30.5252Z" fill="#F6F7D7"/>
<path d="M415.861 54.7232L414.661 51.7258L410.598 52.9654L411.797 55.9628L415.861 54.7232Z" fill="#3EC1D3"/>
<path d="M309.838 31.5693L312.382 30.9165L309.346 26.0441L306.802 26.6969L309.838 31.5693Z" fill="#3EC1D3"/>
<path d="M372.037 27.0693L373.898 26.6071L371.976 23.7469L370.115 24.2092L372.037 27.0693Z" fill="#FF9A00"/>
<path d="M377.637 25.8152L374.669 23.3129L371.848 25.7185L374.816 28.2208L377.637 25.8152Z" fill="#FF165D"/>
<path d="M255.237 58.9688L257.65 58.4586L256.023 53.2106L253.611 53.7207L255.237 58.9688Z" fill="#FF9A00"/>
<path d="M292.051 20.4597L289.803 18.4167L286.207 21.4649L288.455 23.5079L292.051 20.4597Z" fill="#FF165D"/>
<path d="M478.331 27.1354L475.2 24.2821L470.75 28.3338L473.88 31.1871L478.331 27.1354Z" fill="#F6F7D7"/>
<path d="M455.887 43.5804L454.238 41.3801L451.219 43.271L452.868 45.4713L455.887 43.5804Z" fill="#FF165D"/>
<path d="M353.188 88.142L356.132 87.4233L353.34 83.4616L350.396 84.1803L353.188 88.142Z" fill="#3EC1D3"/>
<path d="M378.875 13.0887L379.326 9.66724L374.792 8.25283L374.341 11.6743L378.875 13.0887Z" fill="#FF9A00"/>
<path d="M327.325 19.5403L324.995 19.2339L325.964 22.8272L328.294 23.1336L327.325 19.5403Z" fill="#FF165D"/>
<path d="M431.864 40.8893L432.003 37.6133L427.153 35.7374L427.013 39.0134L431.864 40.8893Z" fill="#FF165D"/>
<path d="M385.561 36.6594L388.926 35.0387L383.129 26.859L379.764 28.4798L385.561 36.6594Z" fill="#3EC1D3"/>
<path d="M444.398 45.5249L444.206 43.0796L440.878 42.3005L441.071 44.7458L444.398 45.5249Z" fill="#F6F7D7"/>
<path d="M268.305 13.8251L267.263 10.6621L261.336 10.4713L262.378 13.6343L268.305 13.8251Z" fill="#3EC1D3"/>
<path d="M275.052 23.7515L278.706 21.7676L274.822 14.2584L271.168 16.2423L275.052 23.7515Z" fill="#3EC1D3"/>
<path d="M302.283 62.3541L304.411 61.0288L297.104 53.4857L294.976 54.811L302.283 62.3541Z" fill="#F6F7D7"/>
<path d="M296.707 30.1069L299.833 27.9906L294.204 21.2393L291.079 23.3556L296.707 30.1069Z" fill="#F6F7D7"/>
<path d="M343.046 11.0857L339.495 9.95093L340.147 13.1589L343.698 14.2937L343.046 11.0857Z" fill="#FF165D"/>
<path d="M292.207 11.4482L294.083 10.0371L290.456 6.14374L288.58 7.55485L292.207 11.4482Z" fill="#3EC1D3"/>
<path d="M330.014 97.4698L330.814 94.1467L323.218 92.4205L322.418 95.7436L330.014 97.4698Z" fill="#F6F7D7"/>
<path d="M304.441 7.01236L304.005 3.37817L293.921 4.00369L294.357 7.63788L304.441 7.01236Z" fill="#F6F7D7"/>
<path d="M511.459 41.2675L509.026 40.0886L508.444 42.8702L510.877 44.049L511.459 41.2675Z" fill="#FF9A00"/>
<path d="M430.546 18.7522L432.741 19.2095L432.745 14.6818L430.551 14.2245L430.546 18.7522Z" fill="#FF165D"/>
<path d="M455.658 72.0869L457.775 70.6019L451.306 64.6606L449.188 66.1456L455.658 72.0869Z" fill="#FF165D"/>
<path d="M253.224 46.2559L252.034 43.7144L247.798 43.3932L248.988 45.9347L253.224 46.2559Z" fill="#FF9A00"/>
<path d="M356.264 24.5109L358.309 22.4363L355.385 20.1947L353.34 22.2693L356.264 24.5109Z" fill="#FF165D"/>
<path d="M402.872 27.8804L405.699 27.1552L401.483 20.3879L398.656 21.1132L402.872 27.8804Z" fill="#F6F7D7"/>
<path d="M323.73 -5.0604L320.846 -6.98926L313.744 0.815656L316.628 2.74451L323.73 -5.0604Z" fill="#FF9A00"/>
<path d="M399.445 71.7516L395.322 71.4978L395.034 78.7562L399.156 79.01L399.445 71.7516Z" fill="#FF9A00"/>
<path d="M369.102 66.1813L372.09 65.5856L370.833 61.3818L367.845 61.9775L369.102 66.1813Z" fill="#3EC1D3"/>
<path d="M374.67 53.6856L373.629 50.0948L366.967 51.4977L368.007 55.0885L374.67 53.6856Z" fill="#F6F7D7"/>
<path d="M298.393 19.9204L297.724 17.4136L289.628 16.9266L290.297 19.4334L298.393 19.9204Z" fill="#FF165D"/>
<path d="M516.645 45.5167L515.225 42.9475L510.936 43.6257L512.356 46.1948L516.645 45.5167Z" fill="#FF165D"/>
<path d="M411.674 81.0715L414.911 79.2988L408.059 70.9348L404.821 72.7074L411.674 81.0715Z" fill="#FF165D"/>
<path d="M337.658 54.0353L333.787 50.6029L328.902 53.4242L332.773 56.8566L337.658 54.0353Z" fill="#F6F7D7"/>
<path d="M506.937 88.4911L509.344 87.667L504.332 80.7525L501.926 81.5766L506.937 88.4911Z" fill="#3EC1D3"/>
<path d="M518.292 20.1061L520 18.1016L514.996 14.6212L513.288 16.6258L518.292 20.1061Z" fill="#F6F7D7"/>
<path d="M496.11 24.9608L498.79 24.868L497.438 20.1468L494.758 20.2395L496.11 24.9608Z" fill="#3EC1D3"/>
<path d="M505.136 41.1678L508.288 41.0209L507.986 37.9373L504.835 38.0842L505.136 41.1678Z" fill="#3EC1D3"/>
<path d="M224.744 30.5411L222.039 28.7771L220 31.7122L222.706 33.4762L224.744 30.5411Z" fill="#FF9A00"/>
<path d="M330.928 38.2299L326.714 36.9003L326.018 44.8938L330.233 46.2234L330.928 38.2299Z" fill="#FF9A00"/>
<path d="M442.699 69.5685L444.43 67.4952L438.832 63.4353L437.1 65.5085L442.699 69.5685Z" fill="#3EC1D3"/>
<path d="M454.135 15.7551L457.054 17.9729L463.264 10.0453L460.344 7.82745L454.135 15.7551Z" fill="#3EC1D3"/>
</g>
<defs>
<radialGradient id="paint0_radial_1850_5989" cx="0" cy="0" r="1" gradientUnits="userSpaceOnUse" gradientTransform="translate(372 -61.8333) rotate(155.507) scale(531.861 163.776)">
<stop stop-color="#F5F5F5"/>
<stop offset="0.853772" stop-color="#FFA67D"/>
<stop offset="1" stop-color="#FF612B"/>
</radialGradient>
<clipPath id="clip0_1850_5989">
<rect width="520" height="140" fill="white"/>
</clipPath>
</defs>
</svg>
